<?xml version="1.0" encoding="UTF-8"?><svg id="PC" xmlns="http://www.w3.org/2000/svg" viewBox="0 0 72 72"><defs><style>.cls-1{fill:#fff;}</style></defs><path class="cls-1" d="m57.44,58.89c0,.43-.35.78-.78.78h-9.09c-.43,0-.78-.35-.78-.78s.35-.78.78-.78h8.31v-11.06c0-.43.35-.78.78-.78s.78.35.78.78v11.83Zm11.86-24.98h-7.86l.16.39c.35.85.52,1.75.52,2.67,0,3.9-3.17,7.07-7.07,7.07s-7.07-3.17-7.07-7.07c0-.92.18-1.82.52-2.67l.16-.39h-7.86c-1.49,0-2.7-1.21-2.7-2.7v-7.86l-.39.16c-.85.35-1.75.52-2.67.52-3.9,0-7.07-3.17-7.07-7.07s3.17-7.07,7.07-7.07c.92,0,1.82.18,2.67.52l.39.16V2.7c0-1.49,1.21-2.7,2.7-2.7h28.5c1.49,0,2.7,1.21,2.7,2.7v8.41c0,.44-.24.85-.62,1.07-.38.22-.85.22-1.23,0-.83-.48-1.79-.74-2.78-.74h-.03c-2.96.02-5.31,2.27-5.46,5.22-.08,1.53.45,2.97,1.47,4.07,1.02,1.09,2.42,1.71,3.94,1.74.99.03,1.99-.24,2.85-.74.38-.22.85-.22,1.23,0,.38.22.62.63.62,1.07v8.41c0,1.49-1.21,2.7-2.7,2.7Zm0-1.56c.63,0,1.15-.51,1.15-1.15v-7.86l-.39.16c-.88.36-1.82.51-2.78.52-1.94-.03-3.74-.82-5.05-2.23-1.32-1.41-1.99-3.26-1.89-5.21.19-3.73,3.26-6.67,7-6.7.95-.02,1.86.17,2.72.52l.39.16V2.7c0-.63-.52-1.15-1.15-1.15h-28.5c-.63,0-1.15.51-1.15,1.15v8.42c0,.44-.24.85-.62,1.07-.38.22-.85.22-1.24,0-.84-.49-1.79-.74-2.77-.74-3.04,0-5.52,2.47-5.52,5.52s2.47,5.52,5.52,5.52c.97,0,1.93-.26,2.77-.75.38-.22.85-.22,1.24,0,.38.22.62.63.62,1.07v8.42c0,.63.52,1.15,1.15,1.15h8.42c.44,0,.85.24,1.07.62s.22.85,0,1.24c-.49.84-.75,1.79-.75,2.77,0,3.04,2.47,5.51,5.52,5.51s5.52-2.47,5.52-5.51c0-.97-.26-1.93-.75-2.77-.22-.38-.22-.85,0-1.24.22-.38.63-.62,1.07-.62h8.42Zm-38.09,29.51h-7.86s.16.39.16.39c.35.85.52,1.75.52,2.67,0,3.9-3.17,7.07-7.07,7.07s-7.07-3.17-7.07-7.07c0-.92.18-1.82.52-2.67l.16-.39H2.7C1.21,61.87,0,60.65,0,59.16v-28.5c0-1.49,1.21-2.7,2.7-2.7h8.41c.44,0,.85.24,1.07.62.22.38.22.85,0,1.23-.49.85-.75,1.82-.74,2.81.03,2.96,2.27,5.31,5.22,5.46,1.53.08,2.97-.45,4.07-1.47,1.09-1.02,1.71-2.42,1.74-3.94.02-1-.24-1.99-.74-2.85-.22-.38-.22-.85,0-1.23.22-.38.63-.62,1.07-.62h8.41c1.49,0,2.7,1.21,2.7,2.7v7.86l.39-.16c.85-.35,1.75-.52,2.67-.52,3.9,0,7.07,3.17,7.07,7.07s-3.17,7.07-7.07,7.07c-.92,0-1.82-.18-2.67-.52l-.39-.16v7.86c0,1.49-1.21,2.7-2.7,2.7Zm0-1.56c.63,0,1.15-.51,1.15-1.15v-8.42c0-.44.24-.85.62-1.07.38-.22.85-.22,1.24,0,.84.49,1.79.75,2.77.75,3.04,0,5.51-2.47,5.51-5.52s-2.47-5.52-5.51-5.52c-.97,0-1.93.26-2.77.74-.38.22-.85.23-1.24,0-.38-.22-.62-.63-.62-1.07v-8.42c0-.63-.52-1.15-1.15-1.15h-7.86l.16.39c.36.88.53,1.82.52,2.78-.03,1.94-.82,3.74-2.23,5.05-1.41,1.32-3.25,1.99-5.21,1.89-3.73-.19-6.67-3.26-6.7-7,0-.94.17-1.85.52-2.72l.16-.39H2.7c-.63,0-1.15.52-1.15,1.15v28.5c0,.63.52,1.15,1.15,1.15h8.42c.44,0,.85.24,1.07.62.22.38.22.85,0,1.24-.49.84-.74,1.79-.74,2.77,0,3.04,2.47,5.52,5.52,5.52s5.52-2.47,5.52-5.52c0-.97-.26-1.93-.75-2.77-.22-.38-.22-.85,0-1.24.22-.38.63-.62,1.07-.62h8.42Zm-13.14-37.12c.43,0,.78-.35.78-.78v-4.72c0-.43-.35-.78-.78-.78s-.78.35-.78.78v4.72c0,.43.35.78.78.78Zm5.67-10.86h-9.09c-.43,0-.78.35-.78.78v11.83c0,.43.35.78.78.78s.78-.35.78-.78v-11.06h8.31c.43,0,.78-.35.78-.78s-.35-.78-.78-.78Zm29.5,42.75c.43,0,.78-.35.78-.78v-4.72c0-.43-.35-.78-.78-.78s-.78.35-.78.78v4.72c0,.43.35.78.78.78Z"/></svg>