<?xml version="1.0" encoding="utf-8"?>
<!-- Generator: Adobe Illustrator 27.7.0, SVG Export Plug-In . SVG Version: 6.00 Build 0)  -->
<svg version="1.1" id="Warstwa_1" xmlns="http://www.w3.org/2000/svg" xmlns:xlink="http://www.w3.org/1999/xlink" x="0px" y="0px"
	 viewBox="0 0 37 37" style="enable-background:new 0 0 37 37;" xml:space="preserve">
<style type="text/css">
	.st0{fill:#96C2E9;}
	.st1{fill:#FFFFFF;}
</style>
<g id="PC">
	<circle class="st0" cx="18.5" cy="18.5" r="18.5"/>
	<path class="st1" d="M23.2,20.2C23.2,20.2,23.2,20.2,23.2,20.2c0-0.1,0-0.1,0-0.2c0,0,0,0,0-0.1c0,0,0,0,0-0.1c0,0,0,0,0-0.1
		s0,0,0-0.1s0,0,0-0.1c0,0,0,0,0-0.1c0,0,0,0,0.1,0c0,0,0,0,0.1,0c0,0,0,0,0.1,0c0,0,0,0,0.1,0c0,0,0,0,0.1,0c0,0,0,0,0.1,0
		c0,0,0,0,0.1,0c0,0,0,0,0.1,0s0,0,0.1,0s0,0,0.1,0s0,0,0.1,0c0,0,0,0,0.1,0c0,0,0,0,0.1,0s0,0,0.1,0s0,0,0.1,0c0,0,0,0,0.1,0
		c0,0,0,0,0,0.1c0,0,0,0,0,0.1c0,0,0,0,0,0.1s0,0,0,0.1c0,0,0,0,0,0.1c0,0,0,0,0,0.1c0,0,0,0,0,0.1s0,0,0,0.1s0,0,0,0.1s0,0,0,0.1
		c0,0,0,0,0,0.1c0,0,0,0,0,0.1c0,0,0,0,0,0.1s0,0,0,0.1s0,0,0,0.1c0,0,0,0,0,0.1c0,0,0,0-0.1,0.1c0,0,0,0-0.1,0c0,0,0,0-0.1,0
		s0,0-0.1,0c0,0,0,0-0.1,0c0,0,0,0-0.1,0c0,0,0,0-0.1,0c0,0-0.1,0-0.2,0c0,0,0,0-0.1,0c0,0,0,0-0.1,0c0,0,0,0-0.1,0s0,0-0.1,0
		s0,0-0.1,0s0,0-0.1,0c0,0,0,0-0.1,0c0,0,0,0,0-0.1c0,0,0,0,0-0.1c0,0,0,0,0-0.1c0,0,0,0,0-0.1c0,0,0,0,0-0.1s0,0,0-0.1
		C23.2,20.3,23.2,20.3,23.2,20.2C23.2,20.3,23.2,20.2,23.2,20.2L23.2,20.2z M14.9,19.1h3.4c0.4,0,0.8-0.4,0.8-0.8s-0.4-0.8-0.8-0.8
		h-3.4c-0.4,0-0.8,0.4-0.8,0.8S14.4,19.1,14.9,19.1z M12.2,29.7v-2.1l-0.1,0c-1-0.6-1.9-1.4-2.5-2.4c-0.6-0.9-1-2-1.1-3.1l0-0.1H7.3
		c-0.4,0-0.8-0.4-0.8-0.8s0.4-0.8,0.8-0.8h1.1l0-0.1c0.5-3.7,3.6-6.5,7.4-6.5h3.9l0-0.1c0.7-1.7,2.4-2.8,4.2-2.8
		c0.4,0,0.8,0.4,0.8,0.8v3l0.1,0c1.1,0.6,2,1.6,2.7,2.7l0,0.1h0.2c1.5,0,2.7,1.2,2.7,2.7v1.9c0,1.5-1.2,2.7-2.7,2.7h-0.2l0,0.1
		c-0.6,1.1-1.6,2-2.7,2.7l-0.1,0v2.1c0,0.4-0.4,0.8-0.8,0.8h-2.9c-0.3,0-0.6-0.2-0.7-0.4l-0.7-1.5h-2.4L16.6,30
		c-0.1,0.3-0.4,0.4-0.7,0.4H13C12.6,30.5,12.2,30.1,12.2,29.7L12.2,29.7z M13.4,26.4c0.3,0.1,0.5,0.4,0.5,0.7v1.8h1.5l0.7-1.5
		c0.1-0.3,0.4-0.5,0.7-0.5h3.4c0.3,0,0.6,0.2,0.7,0.5l0.7,1.5h1.5v-1.8c0-0.3,0.2-0.6,0.5-0.7c1.2-0.6,2.2-1.6,2.8-2.8
		c0.1-0.3,0.4-0.5,0.7-0.5h0.7c0.6,0,1.1-0.5,1.1-1.1v-1.9c0-0.6-0.5-1.1-1.1-1.1h-0.7c-0.3,0-0.6-0.2-0.7-0.5
		c-0.6-1.2-1.5-2.2-2.8-2.8c-0.3-0.1-0.5-0.4-0.5-0.7v-2.6L23,12.7c-0.9,0.3-1.6,1.1-1.9,2.1c-0.1,0.4-0.4,0.6-0.8,0.6h-4.5
		c-3.2,0-5.8,2.6-5.8,5.8C10,23.4,11.3,25.5,13.4,26.4L13.4,26.4z M19.3,9.2c0,1.5-1.2,2.7-2.7,2.7s-2.7-1.2-2.7-2.7
		s1.2-2.7,2.7-2.7S19.3,7.7,19.3,9.2z M17.7,9.2c0-0.6-0.5-1.1-1.1-1.1s-1.1,0.5-1.1,1.1s0.5,1.1,1.1,1.1S17.7,9.8,17.7,9.2z"/>
</g>
</svg>
