<?xml version="1.0" encoding="utf-8"?>
<!-- Generator: Adobe Illustrator 27.7.0, SVG Export Plug-In . SVG Version: 6.00 Build 0)  -->
<svg version="1.1" id="Warstwa_1" xmlns="http://www.w3.org/2000/svg" xmlns:xlink="http://www.w3.org/1999/xlink" x="0px" y="0px"
	 viewBox="0 0 37 37" style="enable-background:new 0 0 37 37;" xml:space="preserve">
<style type="text/css">
	.st0{fill:#96C2E9;}
	.st1{fill:#FFFFFF;}
</style>
<g id="PC">
	<circle class="st0" cx="18.5" cy="18.5" r="18.5"/>
	<path class="st1" d="M17.7,18.7c0-0.4,0.4-0.8,0.8-0.8s0.8,0.4,0.8,0.8v3.4c0,0.4-0.4,0.8-0.8,0.8s-0.8-0.4-0.8-0.8V18.7z
		 M18.6,14.1C18.6,14.1,18.5,14.1,18.6,14.1c-0.1,0-0.1,0-0.2,0s0,0-0.1,0c0,0,0,0-0.1,0c0,0,0,0-0.1,0c0,0,0,0-0.1,0c0,0,0,0-0.1,0
		c0,0,0,0-0.1,0.1c0,0,0,0-0.1,0.1c0,0,0,0,0,0.1c0,0,0,0,0,0.1c0,0,0,0.1,0,0.1c0,0,0,0.1,0,0.1c0,0,0,0.1,0,0.1c0,0,0,0.1,0,0.1
		c0,0,0,0.1,0,0.1c0,0,0,0.1,0,0.1s0,0.1,0,0.1s0,0.1,0,0.1l0,0c0,0,0,0.1,0,0.1c0,0,0,0.1,0,0.1c0,0,0,0.1,0,0.1c0,0,0,0.1,0,0.1
		c0,0,0,0.1,0,0.1c0,0,0,0,0,0.1c0,0,0,0,0.1,0.1c0,0,0,0,0.1,0.1s0,0,0.1,0c0,0,0,0,0.1,0c0,0,0,0,0.1,0c0,0,0,0,0.1,0
		c0,0,0,0,0.1,0c0,0,0.1,0,0.2,0c0,0,0,0,0.1,0c0,0,0,0,0.1,0c0,0,0,0,0.1,0c0,0,0,0,0.1,0c0,0,0,0,0.1,0c0,0,0,0,0.1-0.1
		c0,0,0,0,0.1-0.1c0,0,0,0,0-0.1c0,0,0,0,0-0.1c0,0,0,0,0-0.1s0-0.1,0-0.1c0,0,0-0.1,0-0.1c0,0,0-0.1,0-0.1c0,0,0-0.1,0-0.1
		c0,0,0-0.1,0-0.1s0-0.1,0-0.1s0-0.1,0-0.1c0,0,0-0.1,0-0.1c0,0,0-0.1,0-0.1c0,0,0-0.1,0-0.1c0,0,0-0.1,0-0.1c0,0,0,0,0-0.1
		c0,0,0,0,0-0.1c0,0,0,0-0.1-0.1c0,0,0,0-0.1-0.1c0,0,0,0-0.1,0c0,0,0,0-0.1,0c0,0,0,0-0.1,0C18.7,14.1,18.7,14.1,18.6,14.1
		C18.6,14.1,18.6,14.1,18.6,14.1L18.6,14.1z M15.8,27.8c0-1.5,1.2-2.7,2.7-2.7c1.1,0,2.2,0.7,2.5,1.8l0,0.1h1.2c1.6,0,3-1.3,3-3
		v-7.2c0-0.4,0.4-0.8,0.8-0.8h1.1l0-0.2c-0.5-4.4-4.2-7.7-8.6-7.7s-8.1,3.3-8.6,7.7l0,0.2h1.1c0.4,0,0.8,0.4,0.8,0.8V24
		c0,0.4-0.4,0.8-0.8,0.8H9.2c-1.5,0-2.7-1.2-2.7-2.7v-3.4c0-1.1,0.7-2.1,1.6-2.5l0.1,0v-0.1c0.2-2.5,1.2-4.8,3-6.6
		c1.9-1.9,4.5-3,7.3-3s5.3,1.1,7.3,3c1.8,1.8,2.8,4.1,3,6.6v0.1l0.1,0c1,0.4,1.6,1.4,1.6,2.5v3.4c0,1.5-1.2,2.7-2.7,2.7h-1l0,0.1
		c-0.4,2.1-2.3,3.7-4.5,3.7h-1.2l0,0.1c-0.4,1.1-1.4,1.8-2.5,1.8C17,30.5,15.8,29.3,15.8,27.8L15.8,27.8z M9.2,17.6
		c-0.6,0-1.1,0.5-1.1,1.1v3.4c0,0.6,0.5,1.1,1.1,1.1h0.9v-5.6H9.2z M26.9,23.2h0.9c0.6,0,1.1-0.5,1.1-1.1v-3.4
		c0-0.6-0.5-1.1-1.1-1.1h-0.9V23.2z M17.4,27.8c0,0.6,0.5,1.1,1.1,1.1s1.1-0.5,1.1-1.1s-0.5-1.1-1.1-1.1S17.4,27.2,17.4,27.8z"/>
</g>
</svg>
