<?xml version="1.0" encoding="utf-8"?>
<!-- Generator: Adobe Illustrator 27.7.0, SVG Export Plug-In . SVG Version: 6.00 Build 0)  -->
<svg version="1.1" id="Warstwa_1" xmlns="http://www.w3.org/2000/svg" xmlns:xlink="http://www.w3.org/1999/xlink" x="0px" y="0px"
	 viewBox="0 0 37 37" style="enable-background:new 0 0 37 37;" xml:space="preserve">
<style type="text/css">
	.st0{fill:#96C2E9;}
	.st1{fill:#FFFFFF;}
</style>
<g id="PC">
	<circle class="st0" cx="18.5" cy="18.5" r="18.5"/>
	<path class="st1" d="M23.1,25.9c0,0.4-0.4,0.8-0.8,0.8h-7.6c-0.4,0-0.8-0.4-0.8-0.8s0.4-0.8,0.8-0.8h7.6
		C22.7,25.1,23.1,25.5,23.1,25.9z M23.1,18.5c0,2.5-2.1,4.6-4.6,4.6s-4.6-2.1-4.6-4.6s2.1-4.6,4.6-4.6S23.1,16,23.1,18.5z
		 M17.7,19.3h-2.1l0.1,0.2c0.3,0.8,1,1.5,1.8,1.8l0.2,0.1V19.3z M17.7,15.6l-0.2,0.1c-0.8,0.3-1.5,1-1.8,1.8l-0.1,0.2h2.1V15.6z
		 M21.4,19.3h-2.1v2.1l0.2-0.1c0.8-0.3,1.5-1,1.8-1.8L21.4,19.3z M21.4,17.7l-0.1-0.2c-0.3-0.8-1-1.5-1.8-1.8l-0.2-0.1v2.1H21.4z
		 M10.2,10.8l0.1-0.1l-0.1-0.1l0,0l0.1,0.1l-0.1-0.1l0.1,0.1l-0.1-0.1l0.1,0.1l-0.1-0.1l0,0l0.1,0.1l0,0c0,0,0,0,0.1-0.1
		c0,0,0,0,0,0c0,0,0.1-0.1,0.1-0.1l8.8-3.7c0.3-0.1,0.7-0.2,1-0.2c1.5,0,2.7,1.2,2.7,2.7v1.1h1.1c1.5,0,2.7,1.2,2.7,2.7v14.8
		c0,1.5-1.2,2.7-2.7,2.7H10.9c-0.4,0-0.8-0.4-0.8-0.8V11.1c0-0.1,0-0.1,0-0.2C10.1,10.9,10.1,10.9,10.2,10.8
		C10.1,10.8,10.1,10.8,10.2,10.8L10.2,10.8z M14.9,10.3h6.5V9.2c0-0.6-0.5-1.1-1.1-1.1c-0.1,0-0.3,0-0.4,0.1
		C20,8.2,14.9,10.3,14.9,10.3z M11.7,28.9h12.5c0.6,0,1.1-0.5,1.1-1.1V13c0-0.6-0.5-1.1-1.1-1.1H11.7C11.7,11.9,11.7,28.9,11.7,28.9
		z"/>
</g>
</svg>
