<?xml version="1.0" encoding="utf-8"?>
<!-- Generator: Adobe Illustrator 27.7.0, SVG Export Plug-In . SVG Version: 6.00 Build 0)  -->
<svg version="1.1" id="Warstwa_1" xmlns="http://www.w3.org/2000/svg" xmlns:xlink="http://www.w3.org/1999/xlink" x="0px" y="0px"
	 viewBox="0 0 134.9 47" style="enable-background:new 0 0 134.9 47;" xml:space="preserve">
<style type="text/css">
	.st0{fill:#163072;}
	.st1{fill:#E22021;}
	.st2{fill:#FFFFFF;}
</style>
<g id="PC">
	<g id="otto-e-recruitment-2019-vector">
		<path class="st0" d="M129.1,47c1.5,0,3-0.6,4.1-1.8c1-1,1.6-2.6,1.6-4.3V5.8c0-1.4-0.6-2.7-1.8-4C132,0.6,130.5,0,128.9,0H17.6
			L0,12.8v28.1c0,1.6,0.6,3.1,1.7,4.2C2.8,46.3,4.3,47,5.8,47h0.6H129.1z"/>
		<path class="st1" d="M123.4,5.7h-102L5.6,17.3v17.8c0,3.5,2.6,6.4,5.7,6.4h112.1c3.1,0,5.7-2.9,5.7-6.4V12.2
			C129.1,8.6,126.5,5.7,123.4,5.7"/>
		<path class="st2" d="M21.4,4.9h-0.3L4.8,16.8v18.3c0,4,2.9,7.3,6.6,7.3h112.1c3.6,0,6.6-3.3,6.6-7.3V12.2c0-4-2.9-7.3-6.6-7.3
			C123.4,4.9,21.4,4.9,21.4,4.9z M123.4,6.6c2.7,0,4.9,2.5,4.9,5.6v22.9c0,3.1-2.2,5.6-4.9,5.6H11.3c-2.7,0-4.9-2.5-4.9-5.6V17.8
			C7.1,17.3,21.2,7,21.7,6.6H123.4L123.4,6.6z"/>
		<path class="st2" d="M40.7,10.3H24.6l-4.6,3.4h18.6v11.8h-19V14l-5.7,4.2v7.2c0,2.1,1.4,3.6,3.2,3.6h23.7c1.8,0,3.2-1.5,3.2-3.2
			V13.5C44,11.8,42.5,10.3,40.7,10.3"/>
		<polygon class="st2" points="91.4,10.2 49.9,10.2 45.3,13.6 54.5,13.6 54.5,28.9 60.1,28.9 60.1,13.6 75.1,13.6 75.1,28.9 
			80.7,28.9 80.7,13.6 86.8,13.6 		"/>
		<path class="st2" d="M117,10.3h-16.2l-4.8,3.6l18.8-0.2v11.8H95.8l0.1-11.6L90,18.2v7.5c0,1.8,1.4,3.2,3.2,3.2H117
			c1.8,0,3.2-1.5,3.2-3.2V13.5C120.2,11.8,118.8,10.3,117,10.3"/>
		<polygon class="st2" points="23.5,38.7 20.3,38.7 19.4,35 19.3,35 18.4,38.7 15.1,38.7 13.9,33.5 16,33.5 16.8,37.5 16.9,37.5 
			18,33.5 20.6,33.5 21.7,37.5 21.8,37.5 22.6,33.5 24.7,33.5 		"/>
		<path class="st2" d="M27.9,34c0.5-0.3,1.3-0.5,2.5-0.5s2.1,0.1,2.7,0.4s0.9,0.9,0.9,2c0,1-0.1,1.7-0.4,2.2
			c-0.3,0.5-1.2,0.7-2.8,0.7c-1.2,0-2.1-0.1-2.7-0.4s-0.9-0.9-0.9-1.9v-0.6C27.3,34.9,27.5,34.3,27.9,34 M29.5,36.3
			c0,0.3,0.1,0.6,0.2,0.8c0.1,0.2,0.5,0.3,1,0.3c0.5,0,0.8-0.1,0.9-0.2c0.1-0.2,0.2-0.4,0.2-0.7v-0.2c0-0.1,0-0.1,0-0.2v-0.4
			c0-0.4-0.1-0.6-0.2-0.8c-0.1-0.2-0.5-0.2-1-0.2c-0.5,0-0.9,0.1-1,0.3c-0.1,0.2-0.2,0.5-0.2,0.9L29.5,36.3L29.5,36.3z"/>
		<path class="st2" d="M39.2,33.5l0,0.8h0.1c0.2-0.3,0.4-0.5,0.6-0.6c0.2-0.1,0.6-0.2,1-0.2c0.8,0,1.3,0.2,1.5,0.6
			c0.2,0.4,0.2,0.8,0.3,1.2v0.1c0,0.1,0,0.1,0,0.2s0,0.1,0,0.2h-2c0,0,0,0,0-0.1v-0.3c0-0.2,0-0.3-0.1-0.4s-0.2-0.2-0.5-0.2
			s-0.5,0.1-0.6,0.2s-0.2,0.3-0.2,0.5c0,0,0,0.1,0,0.1s0,0.1,0,0.1v3h-2.2v-5.2C37.1,33.5,39.2,33.5,39.2,33.5z"/>
		<polygon class="st2" points="47.8,35.5 48.1,35.5 49.5,33.5 51.9,33.5 50,36 52.4,38.7 49.8,38.7 48.1,36.6 47.8,36.6 47.8,38.7 
			45.5,38.7 45.5,31.3 47.8,31.3 		"/>
		<path class="st2" d="M59.3,34.7h-1.5v3.9h-2.2v-3.9h-0.9v-1.2h0.9v-0.6c0-0.1,0-0.1,0-0.2c0-0.1,0-0.3,0.1-0.4
			c0-0.1,0.1-0.3,0.2-0.4c0.2-0.2,0.5-0.3,0.8-0.4c0.3-0.1,0.7-0.1,1-0.2c0.2,0,0.4,0,0.6,0s0.4,0,0.6,0h0.3v1.3c0,0-0.1,0-0.1,0
			c0,0-0.1,0-0.1,0c0,0-0.1,0-0.1,0c0,0-0.1,0-0.1,0c-0.4,0-0.7,0.1-0.8,0.2c-0.1,0.1-0.2,0.3-0.2,0.6v0.3h1.5L59.3,34.7L59.3,34.7z
			"/>
		<path class="st2" d="M62.8,34c0.5-0.3,1.3-0.5,2.5-0.5s2.2,0.1,2.7,0.4s0.9,0.9,0.9,2c0,1-0.2,1.7-0.4,2.2
			c-0.3,0.5-1.2,0.7-2.8,0.7c-1.2,0-2.1-0.1-2.7-0.4s-0.9-0.9-0.9-1.9v-0.6C62.1,34.9,62.3,34.3,62.8,34 M64.3,36.3
			c0,0.3,0.1,0.6,0.2,0.8s0.5,0.3,1,0.3c0.5,0,0.8-0.1,0.9-0.2c0.2-0.2,0.2-0.4,0.2-0.7v-0.2c0-0.1,0-0.1,0-0.2v-0.4
			c0-0.4-0.1-0.6-0.2-0.8s-0.4-0.2-1-0.2c-0.6,0-0.9,0.1-1,0.3c-0.1,0.2-0.2,0.5-0.2,0.9L64.3,36.3L64.3,36.3z"/>
		<path class="st2" d="M74,33.5l0,0.8h0.1c0.2-0.3,0.4-0.5,0.6-0.6c0.2-0.1,0.6-0.2,1-0.2c0.8,0,1.3,0.2,1.5,0.6
			c0.2,0.4,0.2,0.8,0.3,1.2v0.1c0,0.1,0,0.1,0,0.2s0,0.1,0,0.2h-2c0,0,0,0,0-0.1v-0.3c0-0.2-0.1-0.3-0.1-0.4s-0.2-0.2-0.5-0.2
			s-0.5,0.1-0.6,0.2s-0.2,0.3-0.2,0.5c0,0,0,0.1,0,0.1s0,0.1,0,0.1v3h-2.2v-5.2L74,33.5L74,33.5z"/>
		<path class="st2" d="M84.6,36.6h2.2c0,0.8-0.2,1.3-0.6,1.6s-1.1,0.5-2.1,0.5c-1.2,0-2.2-0.1-2.8-0.4c-0.7-0.3-1-0.9-1-2
			c0-0.9,0.2-1.7,0.6-2.1s1.2-0.7,2.6-0.7c1,0,1.8,0.1,2.4,0.3c0.6,0.2,0.9,0.8,0.9,1.7h-2.1c0-0.3-0.1-0.5-0.2-0.6
			c-0.1-0.1-0.4-0.2-0.8-0.2c-0.5,0-0.8,0.1-1,0.3c-0.1,0.2-0.2,0.5-0.2,0.8v0.5c0,0.3,0.1,0.6,0.2,0.8c0.1,0.2,0.4,0.3,0.9,0.3
			c0.5,0,0.7-0.1,0.8-0.2C84.5,37.2,84.6,37,84.6,36.6L84.6,36.6L84.6,36.6z"/>
		<path class="st2" d="M93.8,37H96c0,0.8-0.3,1.3-0.8,1.5s-1.3,0.3-2.2,0.3c-1.3,0-2.2-0.2-2.7-0.5s-0.8-1-0.8-2s0.2-1.7,0.6-2.1
			c0.4-0.4,1.3-0.6,2.6-0.6c1.2,0,2,0.2,2.5,0.5s0.8,0.9,0.8,1.9v0.6h-4.3c0,0.4,0.1,0.7,0.2,0.9s0.5,0.3,1.1,0.3
			c0.3,0,0.6,0,0.7-0.1C93.7,37.4,93.8,37.2,93.8,37L93.8,37L93.8,37z M93.6,34.9c-0.2-0.1-0.4-0.2-0.8-0.2h-0.1
			c-0.5,0-0.8,0.1-0.9,0.2s-0.2,0.3-0.2,0.6h2.2C93.9,35.2,93.8,35,93.6,34.9"/>
		<rect x="98.9" y="37" class="st2" width="2.1" height="1.7"/>
		<path class="st2" d="M108.5,37h2.2c0,0.8-0.3,1.3-0.8,1.5c-0.6,0.2-1.3,0.3-2.2,0.3c-1.3,0-2.2-0.2-2.7-0.5s-0.8-1-0.8-2
			s0.2-1.7,0.6-2.1c0.4-0.4,1.3-0.6,2.6-0.6c1.2,0,2,0.2,2.5,0.5c0.5,0.3,0.8,0.9,0.8,1.9v0.6h-4.3c0,0.4,0.1,0.7,0.2,0.9
			s0.5,0.3,1.1,0.3c0.3,0,0.6,0,0.7-0.1C108.4,37.4,108.5,37.2,108.5,37L108.5,37L108.5,37z M108.3,34.9c-0.2-0.1-0.4-0.2-0.8-0.2
			h-0.1c-0.5,0-0.8,0.1-0.9,0.2s-0.2,0.3-0.2,0.6h2.2C108.5,35.2,108.4,35,108.3,34.9"/>
		<path class="st2" d="M120.2,38.7H118l0.1-1H118c-0.2,0.4-0.4,0.6-0.8,0.8s-0.8,0.2-1.3,0.2c-0.8,0-1.3-0.1-1.7-0.4
			c-0.4-0.3-0.6-0.7-0.6-1.3v-3.5h2.2v3c0,0.3,0.1,0.5,0.2,0.7s0.3,0.3,0.7,0.3s0.7-0.1,0.9-0.2s0.3-0.4,0.3-0.7v-3h2.2
			C120.2,33.5,120.2,38.7,120.2,38.7z"/>
	</g>
</g>
</svg>
