<?xml version="1.0" encoding="utf-8"?>
<!-- Generator: Adobe Illustrator 27.7.0, SVG Export Plug-In . SVG Version: 6.00 Build 0)  -->
<svg version="1.1" id="Warstwa_1" xmlns="http://www.w3.org/2000/svg" xmlns:xlink="http://www.w3.org/1999/xlink" x="0px" y="0px"
	 viewBox="0 0 37 37" style="enable-background:new 0 0 37 37;" xml:space="preserve">
<style type="text/css">
	.st0{fill:#96C2E9;}
	.st1{fill:#FFFFFF;}
</style>
<g id="PC">
	<circle class="st0" cx="18.5" cy="18.5" r="18.5"/>
	<path class="st1" d="M6.5,11v14c0,0.4,0.4,0.8,0.8,0.8h2.1l0,0.1c0.4,1.6,1.9,2.7,3.5,2.7s3.1-1.1,3.5-2.7l0-0.1h3.2l0,0.1
		c0.4,1.6,1.9,2.7,3.5,2.7s3.1-1.1,3.5-2.7l0-0.1h3c0.4,0,0.8-0.4,0.8-0.8l0-8.6l-1.5-6c-0.3-1.2-1.4-2-2.6-2H9.2
		C7.7,8.4,6.5,9.6,6.5,11z M12.9,27c-1.1,0-2-0.9-2-2s0.9-2,2-2s2,0.9,2,2S14,27,12.9,27z M23.2,27c-1,0-1.9-0.8-2-1.8v0v0
		c0,0,0-0.1,0-0.1s0-0.1,0-0.1c0.1-1.1,1-1.9,2-1.9c1.1,0,2,0.9,2,2S24.3,27,23.2,27L23.2,27z M28.9,24.2h-2.2l0-0.1
		c-0.4-1.6-1.9-2.7-3.5-2.7s-3.1,1.1-3.5,2.7l0,0.1h-3.2l0-0.1c-0.4-1.6-1.9-2.7-3.5-2.7s-3.1,1.1-3.5,2.7l0,0.1H8.1v-6.8h20.8
		L28.9,24.2L28.9,24.2z M23,10h3.3c0.5,0,0.9,0.3,1,0.8l1.3,5.1H23V10z M15.6,10h5.8v5.9h-5.9C15.6,15.8,15.6,10,15.6,10z M14,15.8
		H8.1V11c0-0.6,0.5-1.1,1.1-1.1H14C14,10,14,15.8,14,15.8z"/>
</g>
</svg>
