<?xml version="1.0" encoding="utf-8"?>
<!-- Generator: Adobe Illustrator 27.7.0, SVG Export Plug-In . SVG Version: 6.00 Build 0)  -->
<svg version="1.1" id="Warstwa_1" xmlns="http://www.w3.org/2000/svg" xmlns:xlink="http://www.w3.org/1999/xlink" x="0px" y="0px"
	 viewBox="0 0 72 72" style="enable-background:new 0 0 72 72;" xml:space="preserve">
<style type="text/css">
	.st0{fill:#FFFFFF;}
</style>
<g id="PC">
	<path class="st0" d="M35.7,72h-0.3L35,72c-0.7-0.1-1.3-0.2-1.9-0.3l-0.5-0.2c-0.6-0.2-1.1-0.4-1.7-0.7l-0.1-0.1
		c-1.5-0.8-2.8-1.9-3.8-3.3l-0.1-0.1c-0.7-1-1.2-2-1.6-3.1L25.3,64H14.5c-0.4,0-0.8-0.3-0.8-0.8v-6.2h-13c-0.4,0-0.8-0.3-0.8-0.8V53
		c0-0.4,0.3-0.8,0.8-0.8s0.8,0.3,0.8,0.8v2.6H7v-3.8C7,51.3,7.3,51,7.7,51s0.8,0.3,0.8,0.8v3.8h5.3v-4.4c0-4.3,2.9-8.1,7.1-9.1
		l5.6-1.4l-0.8-0.4c-0.3-0.2-0.6-0.3-0.9-0.4L19,38.3l-0.1,0.3C18.4,40,17,41,15.4,41s-2.9-1-3.5-2.5l-0.1-0.3L6.2,40
		c-2.8,0.8-4.7,3.4-4.7,6.3V48c0,0.4-0.3,0.8-0.8,0.8S0,48.4,0,48v-1.7c0-1.8,0.6-3.4,1.6-4.8s2.5-2.4,4.2-2.9l6-1.8v-2.5l-0.2-0.1
		c-0.7-0.4-1.3-0.8-1.8-1.4c-1.6-1.5-2.4-3.6-2.4-5.8v-4.6c0-4.5,3.6-8.1,8.1-8.1c2.3,0,4.5,1,6.1,2.7l0.5,0.6V14
		C22.1,6.3,28.3,0,36,0S49.9,6.3,49.9,14v3.6l0.5-0.6c1.5-1.7,3.8-2.7,6.1-2.7c4.5,0,8.1,3.6,8.1,8.1V27c0,2.2-0.9,4.2-2.4,5.8
		c-0.5,0.5-1.2,1-1.8,1.4l-0.2,0.1v2.5l6,1.8c1.7,0.5,3.1,1.5,4.2,2.9c1.1,1.4,1.6,3.1,1.6,4.8V48c0,0.4-0.3,0.8-0.8,0.8
		s-0.8-0.3-0.8-0.8v-1.7c0-2.9-1.9-5.5-4.7-6.3l-5.7-1.7L60,38.6C59.5,40,58.1,41,56.5,41s-3-1-3.5-2.5L53,38.3L47.3,40
		c-0.3,0.1-0.6,0.2-0.9,0.4l-0.8,0.4l5.5,1.4c4.2,1,7.1,4.8,7.1,9.1v4.4h5.3v-3.8c0-0.4,0.3-0.8,0.8-0.8c0.4,0,0.8,0.3,0.8,0.8v3.8
		h5.4V53c0-0.4,0.3-0.8,0.8-0.8S72,52.5,72,53v3.4c0,0.4-0.3,0.8-0.8,0.8h-13v6.2c0,0.4-0.3,0.8-0.8,0.8H46.7l-0.1,0.2
		C45.1,68.9,40.9,72,36,72L35.7,72L35.7,72z M36,51.3c-5.3,0-9.6,4.3-9.6,9.6c0,0.1,0,0.2,0,0.3c0,0.2,0,0.3,0,0.4l0,0.5l0.1,0.5
		c0.8,4.4,4.4,7.6,8.7,7.9l0.5,0H36c5.3,0,9.6-4.3,9.6-9.6c0-0.1,0-0.2,0-0.3l0-0.4l0-0.5l-0.1-0.5c-0.8-4.4-4.4-7.6-8.7-7.9l-0.5,0
		L36,51.3L36,51.3z M51.7,57c0.2,0,0.4,0.1,0.5,0.2c0.3,0.3,0.3,0.8,0,1.1L51.5,59v3.5h5.2V51.2c0-3.6-2.5-6.8-6-7.6l-5-1.2
		l-2.6,5.3c-0.3,0.5-0.8,0.9-1.4,1c-0.1,0-0.2,0-0.3,0c-0.5,0-1-0.2-1.3-0.5l-0.5-0.4l-1,2.3l0.7,0.2c0.6,0.2,1.1,0.4,1.7,0.7
		l0.1,0.1c1.5,0.8,2.8,1.9,3.8,3.3l0.1,0.1c1,1.3,1.6,2.8,1.9,4.5l0.1,0.4l0,0.4l0,0.3c0,0.2,0,0.3,0,0.5c0,0,0,0.4,0,0.5
		c0,0.4,0,0.8-0.1,1.3l0,0.3h3v-3.8c0-0.2,0.1-0.4,0.2-0.5l0.9-0.9C51.3,57,51.5,57,51.7,57L51.7,57z M20.3,57
		c0.2,0,0.4,0.1,0.5,0.2l0.9,0.9c0.1,0.1,0.2,0.3,0.2,0.5v3.8h3l-0.1-0.7c0-0.2,0-0.3,0-0.5c0,0,0-0.4,0-0.5c0-5,3.3-9.4,8.1-10.7
		l0.3-0.1l-1-2.3l-0.5,0.4c-0.4,0.3-0.8,0.5-1.3,0.5c-0.1,0-0.2,0-0.3,0c-0.6-0.1-1.1-0.5-1.4-1l-2.6-5.3l-5,1.2c-3.5,0.9-6,4-6,7.6
		v11.3h5.2V59l-0.7-0.7c-0.3-0.3-0.3-0.8,0-1.1C19.9,57,20.1,57,20.3,57L20.3,57z M33.5,46.6l1.3,3.1h2.3l1.3-3.1L36,44.2L33.5,46.6
		L33.5,46.6z M41.3,40.3c0,0.3-0.1,0.5-0.4,0.6l-3.8,2.3l4,3.9l0.2,0c0.2,0,0.3-0.1,0.3-0.2l2.6-5.4l-3-2.8V40.3L41.3,40.3z
		 M27.6,41.7l2.7,5.5l0.2,0.1c0,0,0,0,0,0c0.1,0,0.2,0,0.3-0.1l3.9-3.8L31,40.9c-0.2-0.1-0.4-0.4-0.4-0.7v-1.4L27.6,41.7L27.6,41.7z
		 M32.2,39.9l3.8,2.4l3.8-2.4V34l-0.4,0.2c-1.1,0.4-2.2,0.6-3.4,0.6s-2.3-0.2-3.4-0.6L32.2,34V39.9z M45.3,26.2
		c-0.2,2.7-1.6,5.2-3.9,6.8l-0.1,0.1v3.7l3.2,2.9l0.2-0.1c0.7-0.4,1.4-0.8,2.1-1l6-1.8v-2.5l-0.2-0.1c-2.6-1.5-4.3-4.2-4.3-7.2v-1.4
		L48,25.7c-0.4,0.1-0.7,0.2-1.1,0.2h-1.5L45.3,26.2L45.3,26.2z M23.6,26.9c0,3-1.6,5.8-4.3,7.2l-0.2,0.1v2.5l6,1.8
		c0.8,0.2,1.5,0.6,2.1,1l0.2,0.1l3.2-2.9v-3.7L30.5,33c-2.2-1.6-3.6-4.1-3.9-6.8l0-0.3h-1.5c-0.4,0-0.8-0.1-1.1-0.2l-0.4-0.2
		L23.6,26.9L23.6,26.9z M54.3,37.3c0,1.2,1,2.2,2.2,2.2s2.2-1,2.2-2.2v-2.5l-0.4,0.1c-0.6,0.1-1.2,0.2-1.8,0.2h-0.1
		c-0.6,0-1.1-0.1-1.7-0.2l-0.4-0.1V37.3L54.3,37.3z M13.3,37.3c0,1.2,1,2.2,2.2,2.2s2.2-1,2.2-2.2v-2.5l-0.4,0.1
		c-0.6,0.1-1.1,0.2-1.7,0.2h-0.1c-0.6,0-1.2-0.1-1.8-0.2l-0.4-0.1L13.3,37.3L13.3,37.3z M15.5,15.8c-3.6,0-6.6,3-6.6,6.6V27
		c0,1.8,0.7,3.4,2,4.7c1.2,1.2,2.9,1.9,4.6,1.9c3.7,0,6.6-3.1,6.6-6.7v-4.5C22,18.8,19.1,15.8,15.5,15.8z M56.5,15.8
		c-3.6,0-6.6,3-6.6,6.6v4.5c0,3.6,2.9,6.7,6.5,6.7l0,0c1.8,0,3.5-0.7,4.7-1.9c1.3-1.2,2-2.9,2-4.7v-4.6
		C63.1,18.8,60.2,15.8,56.5,15.8z M31.5,19c-0.9,0-1.8,0.5-2.3,1.2l-1,1.7v3.5c0,4.3,3.5,7.8,7.8,7.8s7.8-3.5,7.8-7.8v-6.6l-0.2-0.1
		c-0.7-0.3-1.5-0.8-2.1-1.4c-0.2-0.2-0.4-0.5-0.6-0.8l-0.2-0.3l-0.3,0.3C39,18.1,36.9,19,34.7,19L31.5,19L31.5,19z M45.3,24.4h1.5
		c0.8,0,1.5-0.7,1.5-1.5v-2.3c0-0.8-0.7-1.5-1.5-1.5h-1.5C45.3,19,45.3,24.4,45.3,24.4z M25.1,19c-0.8,0-1.5,0.7-1.5,1.5v2.3
		c0,0.8,0.7,1.5,1.5,1.5h1.5V19H25.1z M27.4,17.5c0.4,0,0.8,0.3,0.8,0.8v0.7l0.5-0.4c0.8-0.7,1.8-1.1,2.8-1.1h3.3
		c1.9,0,3.7-0.9,4.9-2.4l0.7-0.9l1.7-2.5c0.1-0.2,0.4-0.3,0.6-0.3c0.2,0,0.3,0.1,0.4,0.1c0.3,0.2,0.4,0.7,0.2,1.1l-1.5,2.2l0.1,0.1
		c0.2,0.3,0.4,0.8,0.9,1.3c0.6,0.6,1.8,1.1,2,1.2l0,0h2.2c0.4,0,0.8,0.1,1.1,0.2l0.4,0.2v-3.9c0-6.8-5.6-12.4-12.4-12.4
		S23.5,7.1,23.5,13.9v3.9l0.4-0.2c0.4-0.1,0.7-0.2,1.1-0.2H27.4L27.4,17.5z M38.9,66.8c-0.2,0-0.5-0.1-0.8-0.2l-2.1-0.9h-0.2
		l-2.1,0.9c-0.2,0.1-0.5,0.2-0.8,0.2c-0.4,0-0.8-0.1-1.1-0.4c-0.5-0.4-0.8-1-0.8-1.7l0.2-2.3l-0.1-0.1l-1.5-1.6
		c-0.4-0.5-0.6-1.2-0.4-1.8c0.2-0.6,0.7-1.1,1.4-1.2l2.3-0.5l0.1-0.1l1.1-1.9c0.3-0.6,0.9-0.9,1.6-0.9s1.3,0.3,1.6,0.9l1.2,2l0.2,0
		l2.1,0.5c0.7,0.2,1.2,0.6,1.4,1.2s0.1,1.3-0.4,1.8l-1.5,1.7v0.2l0.2,2.2c0.1,0.7-0.2,1.3-0.8,1.7C39.7,66.7,39.3,66.8,38.9,66.8
		L38.9,66.8z M35.7,55.8l-1.1,1.9c-0.3,0.4-0.7,0.8-1.2,0.9l-2.3,0.5L31,59.3l0,0.2l0.1,0.2l1.5,1.7c0.3,0.4,0.5,0.9,0.5,1.4
		L32.7,65l0.2,0.1l0.1,0.1h0.1l0.1,0l2.1-0.9c0.2-0.1,0.5-0.2,0.7-0.2s0.5,0.1,0.7,0.2l2.1,0.9H39l0.1-0.1l0.1-0.1v-0.2L39,62.7
		c0-0.5,0.1-1,0.5-1.4l1.6-1.8l0-0.2l0-0.2L40.8,59l-2.2-0.5c-0.5-0.1-0.9-0.4-1.2-0.9l-1.2-2l-0.2,0h-0.2L35.7,55.8L35.7,55.8z"/>
</g>
</svg>
