<?xml version="1.0" encoding="utf-8"?>
<!-- Generator: Adobe Illustrator 27.7.0, SVG Export Plug-In . SVG Version: 6.00 Build 0)  -->
<svg version="1.1" id="Warstwa_1" xmlns="http://www.w3.org/2000/svg" xmlns:xlink="http://www.w3.org/1999/xlink" x="0px" y="0px"
	 viewBox="0 0 72 72" style="enable-background:new 0 0 72 72;" xml:space="preserve">
<style type="text/css">
	.st0{fill:#FFFFFF;}
</style>
<g id="PC">
	<path class="st0" d="M49.8,72c-0.6,0-1.1-0.4-1.3-0.9l-9.2-22.9l-0.1,0c-1.1-0.5-2.2-1-3.2-1s-2.1,0.5-3.2,1l-0.1,0l-9.2,22.9
		c-0.2,0.5-0.7,0.9-1.3,0.9h0c-0.6,0-1.1-0.3-1.4-0.8L17.4,65l-6.8,2.1c-0.1,0.1-0.3,0.1-0.4,0.1c-0.4,0-0.8-0.2-1.1-0.5
		c-0.3-0.3-0.4-0.7-0.4-1.2c0-0.1,0.1-0.3,0.1-0.4l9.5-23.7l-0.3-0.1c-1.4-0.4-2.3-0.9-2.8-1.7c-1-1.3-0.8-3.1-0.6-4.8
		c0.1-1.2,0.2-2.4-0.1-3.3c-0.3-0.8-1-1.7-1.8-2.5c-1.1-1.3-2.4-2.7-2.4-4.4s1.3-3.1,2.4-4.4c0.8-0.9,1.5-1.7,1.8-2.6
		c0.3-0.9,0.2-2.1,0.1-3.3c-0.2-1.7-0.3-3.5,0.6-4.9c1-1.4,2.8-1.7,4.4-2.1c1.1-0.2,2.3-0.5,3.1-1.1c0.7-0.5,1.3-1.6,1.9-2.6
		c0.9-1.5,1.8-3.1,3.4-3.6C28.4,0.1,28.8,0,29.2,0c1.2,0,2.5,0.5,3.7,1.1c1.1,0.5,2.2,1,3.2,1s2.1-0.5,3.2-1c1.2-0.5,2.4-1,3.6-1.1
		l0,0c0.4,0,0.8,0.1,1.1,0.2c1.6,0.5,2.6,2.2,3.4,3.6c0.6,1,1.2,2,1.9,2.6c0.7,0.5,1.9,0.8,3.1,1.1c1.7,0.4,3.5,0.8,4.5,2.1
		c1,1.3,0.8,3.1,0.6,4.9c-0.1,1.2-0.2,2.4,0.1,3.3c0.3,0.8,1,1.7,1.8,2.5c1.1,1.3,2.4,2.7,2.4,4.4s-1.3,3.1-2.4,4.4
		c-0.8,0.9-1.5,1.7-1.8,2.6c-0.3,0.9-0.2,2.1-0.1,3.3c0.2,1.7,0.3,3.5-0.6,4.8c-0.6,0.8-1.5,1.3-2.8,1.7l-0.3,0.1l9.5,23.7
		c0,0.1,0.1,0.3,0.1,0.4c0,0.4-0.1,0.8-0.4,1.2c-0.3,0.3-0.7,0.5-1.1,0.5l0,0c-0.2,0-0.3,0-0.5-0.1L54.5,65l-3.4,6.2
		C50.9,71.7,50.4,72,49.8,72L49.8,72L49.8,72z M49.8,70.4l3.4-6.2c0.1-0.1,0.2-0.2,0.3-0.4l0.1-0.1c0.1-0.1,0.2-0.1,0.3-0.2
		c0,0,0.1,0,0.1-0.1c0.1,0,0.2-0.1,0.3-0.1l0.1,0c0,0,0,0,0.1,0c0.2,0,0.3,0,0.4,0.1l6.7,2.1l-9.6-23.8l-0.2,0.1
		c-0.9,0.2-2,0.5-2.6,1c-0.7,0.5-1.3,1.6-1.9,2.6c-0.8,1.5-1.8,3.1-3.4,3.6c-0.2,0.1-0.4,0.1-0.5,0.1c-0.1,0-0.1,0-0.2,0H43
		c-0.1,0-0.1,0-0.2,0h0c-0.3,0-0.7,0-1.1-0.1L41.2,49L49.8,70.4L49.8,70.4z M17.5,63.5c0.2,0,0.3,0,0.4,0.1c0,0,0.1,0,0.1,0.1
		c0.1,0,0.2,0.1,0.3,0.2l0.1,0.1c0.1,0.1,0.2,0.2,0.3,0.4l3.4,6.2l8.6-21.5l-0.6,0.1c-0.4,0.1-0.7,0.1-1.1,0.1c-0.1,0-0.1,0-0.2,0
		h-0.2c-0.1,0-0.1,0-0.2,0c-0.2,0-0.4-0.1-0.5-0.1c-1.6-0.5-2.6-2.2-3.4-3.6c-0.6-1-1.2-2-1.9-2.6c-0.7-0.5-1.7-0.7-2.6-1l-0.2-0.1
		l-9.6,23.8l6.7-2.1C17.2,63.5,17.3,63.5,17.5,63.5L17.5,63.5L17.5,63.5z M36,45.6c1.3,0,2.6,0.6,3.8,1.1l0.7,0.3
		c0.8,0.3,1.6,0.6,2.3,0.6c0.2,0,0.4,0,0.6-0.1c1.1-0.3,1.8-1.6,2.6-2.9c0.3-0.6,0.7-1.2,1.1-1.7c0.4-0.6,0.8-1,1.3-1.3
		c1-0.7,2.3-1,3.6-1.3c1.5-0.3,2.9-0.6,3.5-1.5c0.6-0.9,0.5-2.3,0.3-3.8c-0.1-1.3-0.3-2.7,0.1-3.9c0.4-1.1,1.3-2.1,2.1-3.1
		c1-1.2,2-2.3,2-3.4s-1-2.2-2-3.4c-0.9-1-1.8-2-2.1-3.1c-0.4-1.2-0.2-2.6-0.1-3.9c0.2-1.5,0.3-2.9-0.3-3.8c-0.2-0.3-0.5-0.5-0.9-0.7
		C54,9.4,53.1,9.2,52.2,9L52,8.9c-1-0.2-2-0.4-2.8-0.8c-0.3-0.1-0.5-0.3-0.8-0.5C47.6,7,47,6.2,46.5,5.4c-0.2-0.3-0.3-0.6-0.5-0.8
		c-0.8-1.3-1.5-2.6-2.6-2.9c-0.2-0.1-0.4-0.1-0.6-0.1c-0.8,0-1.7,0.4-2.5,0.7l-0.5,0.2c-0.3,0.1-0.6,0.3-1,0.4C38,3.2,37,3.6,36,3.6
		s-2-0.3-2.8-0.7c-0.3-0.1-0.6-0.3-1-0.4l-0.5-0.2c-0.8-0.3-1.8-0.7-2.5-0.7c-0.2,0-0.4,0-0.6,0.1C27.5,2,26.8,3.2,26,4.6
		c-0.2,0.3-0.3,0.6-0.5,0.9c-0.5,0.8-1,1.6-1.8,2.2c-0.8,0.6-1.8,0.9-2.6,1.1c-0.3,0.1-0.7,0.1-1,0.2L19.8,9
		c-0.6,0.1-1.3,0.3-1.8,0.5l-0.1,0c-0.2,0.1-0.5,0.2-0.7,0.3c-0.3,0.2-0.5,0.4-0.7,0.6c-0.6,0.9-0.5,2.3-0.4,3.8
		c0.1,1.3,0.3,2.7-0.1,3.9c-0.4,1.1-1.3,2.1-2.1,3.1c-1,1.2-2,2.3-2,3.4s1,2.2,2,3.4c0.9,1,1.8,2,2.1,3.1c0.4,1.2,0.2,2.6,0.1,3.9
		c-0.1,1.5-0.3,2.9,0.4,3.8c0.6,0.9,2.1,1.2,3.5,1.5c1.3,0.3,2.6,0.6,3.6,1.3c0.4,0.3,0.9,0.8,1.3,1.3c0.2,0.3,0.4,0.5,0.5,0.8
		s0.3,0.6,0.5,0.8l0.3,0.5c0.6,1.1,1.3,2.2,2.3,2.5c0.2,0.1,0.4,0.1,0.6,0.1c0.7,0,1.5-0.3,2.3-0.6l0.7-0.3
		C33.5,46.2,34.7,45.6,36,45.6L36,45.6z M36,40c-1,0-2.1-0.1-3.1-0.3c-0.5-0.1-1-0.2-1.5-0.4c-1-0.3-1.9-0.7-2.8-1.2
		c-0.4-0.2-0.9-0.5-1.3-0.8c-4.3-2.9-6.8-7.7-6.8-12.8c0-0.5,0-1,0.1-1.4l0-0.3c0-0.5,0.1-0.9,0.2-1.3l0-0.1c0.1-0.5,0.2-1,0.4-1.4
		c0.2-0.5,0.3-1,0.5-1.4l0-0.1c1.2-2.8,3.2-5.2,5.7-6.8c2.2-1.4,4.7-2.3,7.3-2.5h0l0.1,0c0.3,0,0.7,0,1.1,0s0.8,0,1.1,0
		c2.7,0.2,5.1,1.1,7.3,2.5l0,0l0.1,0c2.5,1.7,4.5,4,5.7,6.8l0,0.1c0.2,0.5,0.4,0.9,0.5,1.4c0.2,0.5,0.3,0.9,0.3,1.4l0,0.2
		c0.1,0.4,0.2,0.9,0.2,1.3l0,0.2c0,0.6,0.1,1,0.1,1.5C51.4,33.1,44.5,40,36,40L36,40z M36,10.7c-2.8,0-5.5,0.8-7.8,2.4
		c-0.4,0.3-0.8,0.5-1.1,0.9c-0.1,0.1-0.3,0.2-0.4,0.4l-0.1,0.1c-0.2,0.2-0.4,0.4-0.6,0.6c-0.2,0.2-0.4,0.4-0.5,0.6
		c-0.2,0.2-0.3,0.4-0.5,0.6l-0.1,0.1c-0.1,0.2-0.3,0.4-0.4,0.5c-0.2,0.3-0.4,0.5-0.5,0.8c-0.2,0.3-0.3,0.5-0.5,0.8
		c-0.2,0.3-0.3,0.6-0.4,1c-0.1,0.1-0.1,0.3-0.2,0.4l0,0.1c-0.1,0.3-0.2,0.6-0.3,1c0,0.2-0.1,0.4-0.1,0.6c-0.1,0.4-0.1,0.7-0.2,1.1
		l0,0.2c0,0.1,0,0.2,0,0.3c-0.1,0.6-0.1,1.1-0.1,1.6c0,5.1,2.8,9.8,7.3,12.2c2,1.1,4.3,1.7,6.6,1.7s4.6-0.6,6.6-1.7
		c4.5-2.5,7.3-7.1,7.3-12.2c0-0.5,0-1-0.1-1.6c0-0.1,0-0.2,0-0.3l0-0.2c-0.1-0.4-0.1-0.7-0.2-1.1c0-0.2-0.1-0.4-0.2-0.6
		c-0.1-0.3-0.2-0.6-0.3-0.9l0-0.1c0-0.1-0.1-0.3-0.2-0.4c-0.1-0.3-0.3-0.6-0.4-1c-0.1-0.3-0.3-0.6-0.5-0.8c-0.2-0.3-0.3-0.6-0.5-0.8
		c-0.1-0.2-0.3-0.4-0.4-0.5c-0.2-0.3-0.4-0.5-0.5-0.6c-0.2-0.2-0.3-0.4-0.5-0.6c-0.2-0.2-0.4-0.4-0.6-0.6l-0.1-0.1
		c-0.1-0.1-0.3-0.2-0.4-0.4c-0.4-0.3-0.8-0.6-1.2-0.9C41.4,11.5,38.7,10.7,36,10.7L36,10.7L36,10.7z"/>
</g>
</svg>
