<?xml version="1.0" encoding="utf-8"?>
<!-- Generator: Adobe Illustrator 27.7.0, SVG Export Plug-In . SVG Version: 6.00 Build 0)  -->
<svg version="1.1" id="Warstwa_1" xmlns="http://www.w3.org/2000/svg" xmlns:xlink="http://www.w3.org/1999/xlink" x="0px" y="0px"
	 viewBox="0 0 16 16" style="enable-background:new 0 0 16 16;" xml:space="preserve">
<style type="text/css">
	.st0{fill:#96C2E9;}
</style>
<g id="PC">
	<path class="st0" d="M8,0C3.6,0,0,3.6,0,8s3.6,8,8,8s8-3.6,8-8S12.4,0,8,0z M12.8,6.7l-5.1,5.1h0c-0.5,0.5-1.3,0.5-1.8,0l0,0l0,0
		L3.8,9.9C3.3,9.4,3.3,8.5,3.8,8l0,0c0.5-0.5,1.3-0.5,1.9,0l0,0l1,1l4.2-4.2c0.5-0.5,1.3-0.5,1.8,0l0,0l0,0
		C13.3,5.3,13.3,6.2,12.8,6.7L12.8,6.7z"/>
</g>
</svg>
