<?xml version="1.0" encoding="utf-8"?>
<!-- Generator: Adobe Illustrator 27.7.0, SVG Export Plug-In . SVG Version: 6.00 Build 0)  -->
<svg version="1.1" id="Warstwa_1" xmlns="http://www.w3.org/2000/svg" xmlns:xlink="http://www.w3.org/1999/xlink" x="0px" y="0px"
	 viewBox="0 0 37 37" style="enable-background:new 0 0 37 37;" xml:space="preserve">
<style type="text/css">
	.st0{fill:#96C2E9;}
	.st1{fill:#FFFFFF;}
</style>
<g id="PC">
	<circle class="st0" cx="18.5" cy="18.5" r="18.5"/>
	<path class="st1" d="M8.2,29.7c0,0.4,0.4,0.8,0.8,0.8h19c0.4,0,0.8-0.4,0.8-0.8c0-3.5-1-6.7-3-9.2c-0.9-1.2-2-2.2-3.3-2.9
		c-0.2-0.1-0.4-0.2-0.6-0.3l-0.2-0.1l0.2-0.1c1.5-1.1,2.4-2.9,2.4-4.7c0-3.2-2.6-5.8-5.9-5.8s-5.9,2.6-5.9,5.8
		c0,1.9,0.9,3.6,2.4,4.7l0.2,0.1l-0.2,0.1c-0.2,0.1-0.4,0.2-0.6,0.3c-1.2,0.7-2.3,1.6-3.3,2.9C9.2,23,8.2,26.2,8.2,29.7L8.2,29.7z
		 M16.2,28.9l1.4-5.8h1.9l1.4,5.8H16.2L16.2,28.9z M16.8,20.3l1-2h0.1c0.4,0,0.8,0,1.1,0h0.1l1,2l-0.6,1.2h-2.1L16.8,20.3L16.8,20.3
		z M24.6,21.5c1.5,1.9,2.4,4.5,2.6,7.2v0.1h-4.7l-1.6-6.5l0.9-1.7c0.1-0.2,0.1-0.5,0-0.7l-0.6-1.1l0.4,0.2
		C22.7,19.5,23.7,20.4,24.6,21.5L24.6,21.5z M14.3,12.3c0-2.3,1.9-4.2,4.2-4.2s4.2,1.9,4.2,4.2s-1.9,4.2-4.2,4.2
		S14.3,14.7,14.3,12.3z M12.4,21.5c0.9-1.1,1.9-2,3-2.5l0.4-0.2l-0.6,1.1c-0.1,0.2-0.1,0.5,0,0.7l0.9,1.7v0l-1.6,6.5H9.8v-0.1
		C10,26,10.9,23.4,12.4,21.5L12.4,21.5z"/>
</g>
</svg>
