<?xml version="1.0" encoding="utf-8"?>
<!-- Generator: Adobe Illustrator 27.7.0, SVG Export Plug-In . SVG Version: 6.00 Build 0)  -->
<svg version="1.1" id="Warstwa_1" xmlns="http://www.w3.org/2000/svg" xmlns:xlink="http://www.w3.org/1999/xlink" x="0px" y="0px"
	 viewBox="0 0 37 37" style="enable-background:new 0 0 37 37;" xml:space="preserve">
<style type="text/css">
	.st0{fill:#96C2E9;}
	.st1{fill:#FFFFFF;}
</style>
<g id="PC">
	<circle class="st0" cx="18.5" cy="18.5" r="18.5"/>
	<path class="st1" d="M17.7,23.9c0,0.4-0.3,0.7-0.6,0.8c-1,0.2-1.2,0.6-1.2,1.1c0,0.4-0.4,0.7-0.8,0.7s-0.8-0.3-0.8-0.7
		c0-0.5-0.2-0.8-1.2-1.1c-0.4-0.1-0.6-0.4-0.6-0.8s0.3-0.7,0.6-0.8c1.1-0.2,1.2-0.6,1.2-1.1c0-0.4,0.4-0.7,0.8-0.7s0.8,0.3,0.8,0.7
		c0,0.5,0.1,0.9,1.2,1.1C17.5,23.2,17.7,23.6,17.7,23.9z M15.6,18.1c0-0.4,0.3-0.7,0.6-0.8c2.1-0.5,2.9-1.3,3-2.9
		c0-0.4,0.4-0.7,0.8-0.7s0.8,0.3,0.8,0.7c0.1,1.7,0.9,2.5,3,2.9c0.4,0.1,0.6,0.4,0.6,0.8s-0.3,0.7-0.6,0.8c-2.1,0.5-2.9,1.2-3,2.9
		c0,0.4-0.4,0.7-0.8,0.7s-0.8-0.3-0.8-0.7c-0.1-1.7-0.9-2.4-3-2.9C15.9,18.8,15.7,18.4,15.6,18.1z M18.8,18.1l0.2,0.1
		c0.2,0.1,0.4,0.3,0.6,0.5c0.1,0.1,0.3,0.3,0.4,0.4l0.1,0.1l0.1-0.1c0.1-0.1,0.2-0.3,0.4-0.4c0.2-0.2,0.4-0.3,0.6-0.5l0.2-0.1
		l-0.2-0.1c-0.2-0.1-0.4-0.3-0.6-0.5c-0.1-0.1-0.2-0.3-0.4-0.4l-0.1-0.1L20,17c-0.3,0.4-0.6,0.6-1,0.9L18.8,18.1z M8.9,29.7V15.1
		l-1.1,0.8c-0.4,0.3-0.9,0.2-1.1-0.2c-0.3-0.4-0.2-0.9,0.2-1.1L18,6.7c0.3-0.2,0.6-0.2,0.9,0l11.2,7.9l0,0c0.2,0.1,0.3,0.3,0.3,0.5
		c0,0.2,0,0.4-0.1,0.6c-0.2,0.4-0.8,0.4-1.1,0.2l-1.1-0.8v14.6c0,0.4-0.4,0.8-0.8,0.8H9.7C9.2,30.5,8.9,30.1,8.9,29.7z M10.5,28.9
		h16V14l-7.9-5.6l-0.1-0.1l-8,5.6L10.5,14L10.5,28.9L10.5,28.9z"/>
</g>
</svg>
