<?xml version="1.0" encoding="UTF-8"?><svg id="PC" xmlns="http://www.w3.org/2000/svg" viewBox="0 0 37 37"><defs><style>.cls-1{fill:#fff;}.cls-2{fill:#96c2e9;}</style></defs><circle class="cls-2" cx="18.5" cy="18.5" r="18.5"/><path class="cls-1" d="m29.63,14.01c-.02-.06-.03-.09-.04-.13-.02-.04-.04-.08-.06-.12-.48-1.12-1.12-2.14-1.91-3.06l-.09-.1.92-.92c.15-.15.24-.35.24-.57s-.08-.42-.24-.57c-.31-.31-.82-.31-1.14,0l-.92.92-.1-.09c-.92-.78-1.94-1.42-3.04-1.9-.06-.03-.09-.05-.14-.07-.04-.02-.08-.03-.11-.04-1.44-.58-2.95-.87-4.51-.87s-3.07.29-4.49.87c-.06.01-.09.03-.13.04-.04.02-.08.04-.12.06-1.12.49-2.14,1.13-3.06,1.91l-.1.09-.92-.92c-.3-.3-.84-.3-1.14,0s-.31.83,0,1.14l.92.92-.09.1c-.79.92-1.42,1.94-1.9,3.04-.03.06-.05.1-.07.14-.02.04-.03.07-.04.11-.58,1.45-.87,2.96-.87,4.51s.29,3.07.87,4.49c.02.06.03.09.04.13.02.05.04.09.06.13.48,1.12,1.12,2.14,1.91,3.05l.09.1-.92.92c-.31.31-.31.82,0,1.14.3.3.84.3,1.14,0l.92-.92.1.09c.91.78,1.94,1.42,3.04,1.9.05.03.09.05.14.07.04.02.08.03.11.04,1.44.58,2.95.87,4.51.87s3.07-.29,4.49-.87c.06-.01.09-.03.13-.04.05-.02.08-.04.12-.06,1.12-.49,2.14-1.12,3.05-1.91l.1-.09.92.92c.3.3.84.3,1.14,0,.15-.15.24-.36.24-.57,0-.22-.08-.42-.24-.57l-.92-.92.09-.1c.78-.92,1.42-1.94,1.9-3.03.03-.06.05-.1.07-.14h0s.03-.08.03-.11c.58-1.44.87-2.96.87-4.51s-.29-3.07-.87-4.49Zm-6.39-4.75l.14.08c1.83.98,3.31,2.46,4.29,4.29l.08.14-3.63,1.47-.06-.1c-.54-.88-1.29-1.63-2.17-2.17l-.1-.06,1.47-3.63Zm.14,9.24c0,2.69-2.19,4.89-4.89,4.89s-4.89-2.19-4.89-4.89,2.19-4.89,4.89-4.89,4.89,2.19,4.89,4.89Zm-8-9.91c2.01-.63,4.21-.63,6.22,0l.15.05-1.47,3.62-.12-.03c-1.09-.29-2.25-.29-3.34,0l-.12.03-1.47-3.62.15-.05Zm-6.06,5.03c.98-1.83,2.46-3.31,4.29-4.29l.14-.08,1.47,3.63-.1.06c-.88.54-1.63,1.29-2.17,2.17l-.06.1-3.63-1.47.08-.14Zm-.75,7.99c-.32-1-.48-2.05-.48-3.11s.16-2.1.48-3.11l.05-.15,3.62,1.47-.03.12c-.14.54-.22,1.11-.22,1.67s.07,1.13.22,1.67l.03.12-3.62,1.46-.05-.15Zm5.17,6.13l-.14-.08c-1.83-.98-3.31-2.46-4.29-4.29l-.08-.14,3.63-1.47.06.1c.54.88,1.29,1.63,2.17,2.17l.1.06-1.47,3.63Zm7.85.67c-1,.32-2.05.48-3.11.48s-2.11-.16-3.11-.48l-.15-.05,1.47-3.62.12.03c1.08.29,2.26.29,3.34,0l.12-.03,1.47,3.62-.15.05Zm6.06-5.03c-.98,1.83-2.46,3.31-4.29,4.29l-.14.08-1.47-3.63.1-.06c.88-.54,1.63-1.29,2.17-2.17l.06-.1,3.63,1.47-.08.14Zm.75-1.77l-.05.15-.14-.06-3.48-1.41.03-.12c.14-.54.22-1.1.22-1.67s-.07-1.13-.22-1.67l-.03-.12.12-.05,3.5-1.42.05.15c.32,1,.47,2.05.47,3.11s-.16,2.11-.47,3.11Z"/></svg>