<?xml version="1.0" encoding="utf-8"?>
<!-- Generator: Adobe Illustrator 27.7.0, SVG Export Plug-In . SVG Version: 6.00 Build 0)  -->
<svg version="1.1" id="Warstwa_1" xmlns="http://www.w3.org/2000/svg" xmlns:xlink="http://www.w3.org/1999/xlink" x="0px" y="0px"
	 viewBox="0 0 72 72" style="enable-background:new 0 0 72 72;" xml:space="preserve">
<style type="text/css">
	.st0{fill:#FFFFFF;}
</style>
<g id="PC">
	<path class="st0" d="M30.3,35.2c-5.4,0-9.9,4.4-9.9,9.9s4.4,9.9,9.9,9.9s9.9-4.4,9.9-9.9S35.8,35.2,30.3,35.2z M34.5,52.3
		c-1.3,0.8-2.7,1.1-4.2,1.1s-2.9-0.4-4.2-1.1l-0.2-0.1l0.1-0.2c0.9-1.6,2.5-2.6,4.3-2.6s3.5,1,4.3,2.6l0.1,0.2L34.5,52.3L34.5,52.3z
		 M36.3,50.9L36,51.2l-0.2-0.3c-1.2-2-3.2-3.1-5.5-3.1s-4.3,1.2-5.5,3.1l-0.2,0.3l-0.3-0.3c-1.5-1.6-2.4-3.6-2.4-5.8
		c0-4.6,3.7-8.3,8.3-8.3s8.3,3.7,8.3,8.3C38.6,47.3,37.8,49.3,36.3,50.9z M62.1,15.9c-1.7,0-3,1.4-3,3s1.4,3,3,3s3-1.4,3-3
		S63.8,15.9,62.1,15.9z M62.1,20.5c-0.8,0-1.5-0.7-1.5-1.5s0.7-1.5,1.5-1.5s1.5,0.7,1.5,1.5S63,20.5,62.1,20.5z M56,65.9
		c2-1.3,3.8-2.8,5.5-4.5C68.2,54.7,72,45.6,72,36c0-1.4-0.1-2.9-0.3-4.5c0-0.2-0.1-0.4-0.3-0.5c-0.2-0.1-0.4-0.2-0.6-0.2
		c-0.4,0-0.7,0.4-0.7,0.9c0.1,1.1,0.2,2.2,0.3,3.2v0.3H58.3c-2.1,0-4.1,1-5.3,2.8l-3.7,5.3c-1.7,2.4-1.5,5.7,0.4,8L53,55
		c1,1.1,1.5,2.5,1.5,4v6l-0.1,0.1c-5.5,3.5-11.9,5.3-18.4,5.3c-3.5,0-7-0.5-10.4-1.6l-0.2-0.1v-2.4c0-1.1,0.4-2.2,1.1-3.1l3.3-4.1
		c0.3-0.3,0.2-0.8-0.1-1.1c-0.3-0.3-0.8-0.2-1.1,0.1l-3.3,4.1c-0.9,1.1-1.4,2.6-1.4,4v1.8l-0.4-0.2c-8.2-3.2-15-9.6-18.7-17.6
		l-0.1-0.2l0.1-0.1l2.1-2.8c1-1.3,1.5-2.9,1.5-4.6v-7.9c0-1.7-0.6-3.3-1.6-4.6l-3.6-4.7l0-0.1c0.3-1.1,0.7-2.1,1.2-3.1
		c0.2-0.4,0-0.9-0.4-1c-0.1,0-0.2-0.1-0.3-0.1c-0.1,0-0.2,0-0.3,0.1c-0.2,0.1-0.3,0.2-0.4,0.4C1,26.2,0,31.1,0,36
		c0,9.6,3.7,18.7,10.5,25.5S26.4,72,36,72c6.9,0,13.6-2,19.4-5.7l0.1,0C55.7,66.3,55.8,66.2,56,65.9L56,65.9L56,65.9z M3.8,48.2
		c-1.5-3.9-2.2-8-2.2-12.2c0-2.7,0.3-5.4,0.9-8l0.1-0.6l2.9,3.8c0.8,1.1,1.2,2.4,1.2,3.7v7.9c0,1.3-0.4,2.6-1.2,3.6L4,48.6L3.8,48.2
		L3.8,48.2z M54.2,54l-3.3-3.8c-1.5-1.7-1.6-4.2-0.3-6l3.7-5.3c0.9-1.3,2.4-2.1,4-2.1h12.2v0.3C70.1,47.6,65,57.3,56.5,63.6L56.1,64
		v-5C56.1,57.2,55.4,55.4,54.2,54L54.2,54z M30.3,39.8c-1.7,0-3,1.4-3,3s1.4,3,3,3s3.1-1.4,3.1-3S32,39.8,30.3,39.8z M30.3,44.3
		c-0.8,0-1.5-0.7-1.5-1.5s0.7-1.5,1.5-1.5s1.5,0.7,1.5,1.5S31.1,44.3,30.3,44.3z M62.1,11.4c-5.4,0-9.9,4.4-9.9,9.9s4.4,9.9,9.9,9.9
		s9.9-4.4,9.9-9.9S67.6,11.4,62.1,11.4z M66.3,28.4c-1.3,0.8-2.7,1.1-4.2,1.1s-2.9-0.4-4.2-1.1l-0.2-0.1l0.1-0.2
		c0.8-1.6,2.5-2.6,4.3-2.6s3.5,1,4.3,2.6l0.1,0.2L66.3,28.4L66.3,28.4z M68.1,27l-0.3,0.3L67.6,27c-1.2-2-3.2-3.1-5.5-3.1
		S57.8,25,56.6,27l-0.2,0.3L56.2,27c-1.5-1.6-2.4-3.6-2.4-5.8c0-4.6,3.7-8.3,8.3-8.3s8.3,3.7,8.3,8.3C70.4,23.4,69.6,25.5,68.1,27z
		 M9.9,4.5c-1.7,0-3.1,1.4-3.1,3.1s1.4,3.1,3.1,3.1s3.1-1.4,3.1-3.1S11.6,4.5,9.9,4.5z M9.9,9.1c-0.8,0-1.5-0.7-1.5-1.5
		S9,6.1,9.9,6.1s1.5,0.7,1.5,1.5S10.7,9.1,9.9,9.1z M58.2,7.7c0.3,0.3,0.4,0.8,0.1,1.1c-0.3,0.3-0.8,0.4-1.1,0.1
		c-0.6-0.4-1.2-0.9-1.7-1.3l-0.2-0.1l-5,5c-0.7,0.7-1.1,1.7-1.1,2.7v2.7c0,1.7-1.4,3-3,3h-1.1c-1.5,0-2.6,1.2-2.6,2.6v3.4
		c0,1.5,1.2,2.6,2.6,2.6h6.8c0.4,0,0.8,0.4,0.8,0.8s-0.3,0.8-0.8,0.8h-6.8c-2.3,0-4.2-1.9-4.2-4.2v-3.4c0-2.3,1.9-4.2,4.2-4.2h1.1
		c0.8,0,1.5-0.7,1.5-1.5v-2.7c0-1.4,0.5-2.8,1.6-3.8L54,6.6l-0.3-0.2C48.4,3.2,42.3,1.5,36,1.5h-0.4v1.7c0,1.5-0.8,3-2.2,3.7l-1.8,1
		c-0.7,0.4-1,1.2-0.7,1.9l1.3,3.1c0.9,2.1,0.3,4.5-1.3,6l-5.9,5.5c-1.2,1.1-1.9,2.7-1.9,4.4l0,2.8c0,1.7-1.4,3-3,3s-3-1.3-3-3l0-1.8
		l-2.3,1.8c-1.2,0.9-1.8,2.3-1.8,3.8v3c0,0.8,0.7,1.5,1.5,1.5h2.8c0.4,0,0.8,0.3,0.8,0.8s-0.4,0.8-0.8,0.8h-2.8
		c-1.7,0-3.1-1.4-3.1-3v-3c0-2,0.9-3.8,2.4-5l3.5-2.8c0.1-0.1,0.3-0.2,0.5-0.2c0.1,0,0.2,0,0.3,0.1c0.3,0.1,0.4,0.4,0.4,0.7l0,3.4
		c0,0.8,0.7,1.5,1.5,1.5s1.5-0.7,1.5-1.5l0-2.8c0-2.1,0.9-4.1,2.4-5.5l5.9-5.5c1.2-1.1,1.5-2.8,0.9-4.2l-1.3-3.1
		c-0.6-1.5,0-3.1,1.4-3.9l1.8-1c0.9-0.5,1.4-1.3,1.4-2.3V1.6l-0.3,0c-4,0.2-7.8,1.2-11.5,2.8c-0.4,0.2-0.9,0-1-0.4
		c-0.2-0.4,0-0.8,0.4-1c4.1-1.8,8.4-2.8,13-2.9c0.1,0,0.1,0,0.3,0c0.3,0,0.6,0,1,0C44.2,0,51.8,2.7,58.2,7.7L58.2,7.7z M9.9,0
		C4.4,0,0,4.4,0,9.9s4.4,9.9,9.9,9.9s9.9-4.4,9.9-9.9S15.3,0,9.9,0z M14.1,17c-1.3,0.8-2.7,1.1-4.2,1.1S6.9,17.8,5.7,17l-0.2-0.1
		l0.1-0.2c0.8-1.6,2.5-2.6,4.3-2.6s3.4,1,4.3,2.6l0.1,0.2L14.1,17L14.1,17z M15.8,15.7l-0.3,0.3l-0.2-0.3c-1.2-1.9-3.2-3.1-5.5-3.1
		s-4.3,1.2-5.5,3.1l-0.2,0.3l-0.3-0.3c-1.5-1.6-2.4-3.6-2.4-5.8c0-4.6,3.7-8.3,8.3-8.3s8.3,3.7,8.3,8.3C18.2,12,17.3,14.1,15.8,15.7
		L15.8,15.7z"/>
</g>
</svg>
