<?xml version="1.0" encoding="utf-8"?>
<!-- Generator: Adobe Illustrator 27.7.0, SVG Export Plug-In . SVG Version: 6.00 Build 0)  -->
<svg version="1.1" id="Warstwa_1" xmlns="http://www.w3.org/2000/svg" xmlns:xlink="http://www.w3.org/1999/xlink" x="0px" y="0px"
	 viewBox="0 0 37 37" style="enable-background:new 0 0 37 37;" xml:space="preserve">
<style type="text/css">
	.st0{fill:#96C2E9;}
	.st1{fill:#FFFFFF;}
</style>
<g id="PC">
	<circle class="st0" cx="18.5" cy="18.5" r="18.5"/>
	<path class="st1" d="M19.5,18.5c0,0.6-0.5,1-1,1s-1-0.5-1-1s0.5-1,1-1S19.5,17.9,19.5,18.5z M18.5,25.1c0.6,0,1-0.5,1-1s-0.5-1-1-1
		s-1,0.5-1,1S17.9,25.1,18.5,25.1z M24.1,17.5c-0.6,0-1,0.5-1,1s0.5,1,1,1s1-0.5,1-1S24.7,17.5,24.1,17.5z M26.8,24.1
		c0,1.5-1.2,2.7-2.7,2.7s-2.7-1.2-2.7-2.7s1.2-2.7,2.7-2.7S26.8,22.6,26.8,24.1z M25.2,24.1c0-0.6-0.5-1.1-1.1-1.1S23,23.5,23,24.1
		s0.5,1.1,1.1,1.1S25.2,24.7,25.2,24.1z M13.7,7.3v1.1h9.6V7.3c0-0.4,0.4-0.8,0.8-0.8s0.8,0.4,0.8,0.8v1.1h4.8
		c0.4,0,0.8,0.4,0.8,0.8v20.5c0,0.4-0.4,0.8-0.8,0.8H7.3c-0.4,0-0.8-0.4-0.8-0.8V9.2c0-0.4,0.4-0.8,0.8-0.8h4.8V7.3
		c0-0.4,0.4-0.8,0.8-0.8S13.7,6.9,13.7,7.3L13.7,7.3z M28.9,15.6H8.1v13.3h20.8V15.6z M13.7,10V11c0,0.4-0.4,0.8-0.8,0.8
		s-0.8-0.4-0.8-0.8V10h-4v4h20.8v-4h-4V11c0,0.4-0.4,0.8-0.8,0.8s-0.8-0.4-0.8-0.8V10H13.7L13.7,10z M12.9,25.1c0.6,0,1-0.5,1-1
		s-0.5-1-1-1s-1,0.5-1,1S12.3,25.1,12.9,25.1z M12.9,17.5c-0.6,0-1,0.5-1,1s0.5,1,1,1s1-0.5,1-1S13.5,17.5,12.9,17.5z"/>
</g>
</svg>
