<?xml version="1.0" encoding="UTF-8"?><svg id="PC" xmlns="http://www.w3.org/2000/svg" viewBox="0 0 37 37"><defs><style>.cls-1{fill:#fff;}.cls-2{fill:#96c2e9;}</style></defs><circle class="cls-2" cx="18.5" cy="18.5" r="18.5"/><path class="cls-1" d="m18.5,24.05c3.58,0,6.5-2.92,6.5-6.5s-2.91-6.5-6.5-6.5-6.5,2.92-6.5,6.5,2.91,6.5,6.5,6.5Zm0-11.39c2.7,0,4.89,2.19,4.89,4.89s-2.19,4.89-4.89,4.89-4.89-2.19-4.89-4.89,2.19-4.89,4.89-4.89Zm-2.7,4.89c0-.44.36-.81.81-.81h1.09v-1.09c0-.44.36-.81.81-.81s.81.36.81.81v1.09h1.09c.44,0,.81.36.81.81s-.36.81-.81.81h-1.09v1.09c0,.44-.36.81-.81.81s-.81-.36-.81-.81v-1.09h-1.09c-.44,0-.81-.36-.81-.81Zm-7.59-8.35v8.16c0,2.3.53,4.43,1.58,6.32.84,1.51,2,2.87,3.46,4.03,2.45,1.96,4.91,2.72,5.02,2.75.15.04.31.04.46,0,.1-.03,2.57-.79,5.02-2.75,1.46-1.17,2.62-2.52,3.46-4.03,1.05-1.89,1.58-4.02,1.58-6.32v-8.16c0-.38-.27-.71-.65-.79l-9.49-1.9c-.05,0-.11-.02-.16-.02s-.11,0-.16.02l-9.49,1.9c-.38.08-.65.41-.65.79Zm1.61.66l.12-.02,8.57-1.71h.03s8.65,1.74,8.65,1.74v7.5c0,3.66-1.48,6.7-4.39,9.06-1.76,1.42-3.55,2.16-4.24,2.41l-.05.02-.05-.02c-.69-.25-2.48-.99-4.24-2.41-2.91-2.35-4.39-5.4-4.39-9.06v-7.5Z"/></svg>