<?xml version="1.0" encoding="utf-8"?>
<!-- Generator: Adobe Illustrator 27.7.0, SVG Export Plug-In . SVG Version: 6.00 Build 0)  -->
<svg version="1.1" id="Warstwa_1" xmlns="http://www.w3.org/2000/svg" xmlns:xlink="http://www.w3.org/1999/xlink" x="0px" y="0px"
	 viewBox="0 0 37 37" style="enable-background:new 0 0 37 37;" xml:space="preserve">
<style type="text/css">
	.st0{fill:#96C2E9;}
	.st1{fill:#FFFFFF;}
</style>
<g id="PC">
	<circle class="st0" cx="18.5" cy="18.5" r="18.5"/>
	<path class="st1" d="M29.1,24.7c0.3,0.3,0.8,0.3,1.1,0c0.1-0.1,0.2-0.4,0.2-0.6s-0.1-0.4-0.2-0.6l-6.9-6.9l3.2-3.2
		c0.1-0.1,0.2-0.4,0.2-0.6s-0.1-0.4-0.2-0.6l-5.6-5.6c-0.3-0.3-0.8-0.3-1.1,0l-7.5,7.5c-0.1,0.1-0.2,0.4-0.2,0.6
		c0,0.2,0.1,0.4,0.2,0.6l5.6,5.6c0.3,0.3,0.8,0.3,1.1,0l3.2-3.2l0.1,0.1L29.1,24.7L29.1,24.7z M18.5,19.2L14,14.8l0.1-0.1l6.2-6.2
		l4.5,4.5L18.5,19.2z M6.5,29.7c0,0.4,0.4,0.8,0.8,0.8h16.8c0.4,0,0.8-0.4,0.8-0.8c0-2.5-2-4.5-4.5-4.5H11
		C8.5,25.2,6.5,27.2,6.5,29.7z M23.1,28.7l0.1,0.2h-15l0.1-0.2c0.4-1.1,1.5-1.9,2.8-1.9h9.3C21.6,26.8,22.7,27.5,23.1,28.7z"/>
</g>
</svg>
