<?xml version="1.0" encoding="utf-8"?>
<!-- Generator: Adobe Illustrator 27.7.0, SVG Export Plug-In . SVG Version: 6.00 Build 0)  -->
<svg version="1.1" id="Warstwa_1" xmlns="http://www.w3.org/2000/svg" xmlns:xlink="http://www.w3.org/1999/xlink" x="0px" y="0px"
	 viewBox="0 0 34.9 28.9" style="enable-background:new 0 0 34.9 28.9;" xml:space="preserve">
<style type="text/css">
	.st0{fill:#0C2563;}
</style>
<g id="MOBILE">
	<path class="st0" d="M2.5,23.9h29.9c1.4,0,2.5,1.1,2.5,2.5l0,0c0,1.4-1.1,2.5-2.5,2.5H2.5c-1.4,0-2.5-1.1-2.5-2.5l0,0
		C0,25,1.1,23.9,2.5,23.9z"/>
	<path class="st0" d="M2.5,12h29.9c1.4,0,2.5,1.1,2.5,2.5v0c0,1.4-1.1,2.5-2.5,2.5H2.5C1.1,17,0,15.8,0,14.5v0C0,13.1,1.1,12,2.5,12
		z"/>
	<path class="st0" d="M2.5,0h29.9c1.4,0,2.5,1.1,2.5,2.5l0,0c0,1.4-1.1,2.5-2.5,2.5H2.5C1.1,5,0,3.9,0,2.5l0,0C0,1.1,1.1,0,2.5,0z"
		/>
</g>
</svg>
